<svg xmlns="http://www.w3.org/2000/svg" xmlns:xlink="http://www.w3.org/1999/xlink" width="500" zoomAndPan="magnify" viewBox="0 0 375 374.999991" height="500" preserveAspectRatio="xMidYMid meet" version="1.0"><defs><clipPath id="a9ae1e1589"><path d="M 8.761719 8.761719 L 366.230469 8.761719 L 366.230469 366.511719 L 8.761719 366.511719 Z M 8.761719 8.761719 " clip-rule="nonzero"/></clipPath></defs><rect x="-37.5" width="450" fill="#ffffff" y="-37.499999" height="449.999989" fill-opacity="1"/><rect x="-37.5" width="450" fill="#ffffff" y="-37.499999" height="449.999989" fill-opacity="1"/><g clip-path="url(#a9ae1e1589)"><path fill="#000000" d="M 90.425781 284.566406 C 93.511719 287.652344 97.554688 289.195312 101.597656 289.195312 C 105.644531 289.195312 109.6875 287.652344 112.777344 284.566406 L 153.003906 244.335938 C 167.429688 254.1875 184.226562 259.136719 201.027344 259.136719 C 222.851562 259.136719 244.671875 250.828125 261.285156 234.21875 C 294.511719 200.992188 294.511719 146.929688 261.285156 113.707031 C 228.0625 80.480469 174 80.480469 140.773438 113.707031 C 111.367188 143.113281 108.007812 188.832031 130.65625 221.988281 L 90.425781 262.21875 C 84.253906 268.390625 84.253906 278.394531 90.425781 284.566406 Z M 187.355469 8.761719 C 286.144531 8.761719 366.230469 88.847656 366.230469 187.636719 C 366.230469 286.425781 286.144531 366.511719 187.355469 366.511719 C 88.566406 366.511719 8.480469 286.425781 8.480469 187.636719 C 8.480469 88.847656 88.566406 8.761719 187.355469 8.761719 " fill-opacity="1" fill-rule="nonzero"/></g><path fill="#000000" d="M 201.027344 115.042969 C 216.125 115.042969 231.222656 120.789062 242.710938 132.28125 C 265.695312 155.261719 265.695312 192.660156 242.710938 215.648438 C 219.726562 238.632812 182.328125 238.628906 159.34375 215.648438 C 136.363281 192.660156 136.363281 155.261719 159.34375 132.28125 C 170.835938 120.789062 185.933594 115.042969 201.027344 115.042969 " fill-opacity="1" fill-rule="nonzero"/><path fill="#ffffff" d="M 221.3125 218.652344 C 221.042969 218.382812 220.804688 218.074219 220.609375 217.730469 C 219.425781 215.652344 220.15625 213.007812 222.234375 211.828125 C 225.601562 209.914062 228.710938 207.542969 231.476562 204.773438 C 233.167969 203.082031 235.90625 203.082031 237.597656 204.773438 C 239.289062 206.464844 239.289062 209.203125 237.597656 210.894531 C 234.28125 214.210938 230.550781 217.054688 226.507812 219.351562 C 224.777344 220.335938 222.652344 219.996094 221.3125 218.652344 " fill-opacity="1" fill-rule="nonzero"/><path fill="#ffffff" d="M 241.132812 197.015625 C 239.894531 195.773438 239.484375 193.84375 240.257812 192.15625 C 244.871094 182.058594 245.402344 170.25 241.71875 159.757812 C 240.929688 157.5 242.113281 155.03125 244.367188 154.242188 C 246.625 153.449219 249.09375 154.636719 249.882812 156.890625 C 254.367188 169.660156 253.746094 183.460938 248.128906 195.753906 C 247.136719 197.925781 244.570312 198.882812 242.394531 197.890625 C 241.914062 197.667969 241.488281 197.367188 241.132812 197.015625 " fill-opacity="1" fill-rule="nonzero"/><path fill="#ffffff" d="M 143.152344 174.144531 C 143.152344 158.730469 149.152344 144.242188 160.050781 133.347656 C 170.949219 122.449219 185.4375 116.449219 200.847656 116.449219 C 216.257812 116.449219 230.75 122.449219 241.644531 133.347656 C 252.542969 144.242188 258.542969 158.730469 258.542969 174.144531 C 258.542969 189.554688 252.542969 204.042969 241.644531 214.941406 C 230.75 225.839844 216.257812 231.839844 200.847656 231.839844 C 185.4375 231.839844 170.949219 225.839844 160.050781 214.941406 C 149.152344 204.042969 143.152344 189.554688 143.152344 174.144531 Z M 112.820312 281.058594 L 157.117188 231.496094 C 185.390625 253.113281 225.988281 250.996094 251.84375 225.140625 C 280.007812 196.976562 280.007812 151.3125 251.84375 123.144531 C 223.679688 94.980469 178.015625 94.980469 149.851562 123.144531 C 123.996094 149 121.878906 189.601562 143.492188 217.875 L 93.933594 262.171875 C 88.207031 267.292969 87.957031 276.171875 93.390625 281.601562 C 98.820312 287.03125 107.699219 286.785156 112.820312 281.058594 " fill-opacity="1" fill-rule="nonzero"/></svg>